<?xml version="1.0" encoding="UTF-8" standalone="no"?>
<!DOCTYPE svg PUBLIC "-//W3C//DTD SVG 1.1//EN" "http://www.w3.org/Graphics/SVG/1.1/DTD/svg11.dtd">
<svg width="100%" height="100%" viewBox="0 0 1350 560" version="1.1" xmlns="http://www.w3.org/2000/svg" xmlns:xlink="http://www.w3.org/1999/xlink" xml:space="preserve"  style="fill-rule:evenodd;clip-rule:evenodd;stroke-linejoin:round;stroke-miterlimit:2;">
    <g transform="matrix(0.951037,0,0,0.653682,-89.7475,-193.879)">
        <rect id="Artboard1" x="94.368" y="296.595" width="1418.99" height="856.337" style="fill:none;"/>
        <g id="Artboard1">
            <g transform="matrix(9.12137,0,0,13.2706,-27.5818,-1.15763)">
                <path d="M24.7,33.69C30.48,28.58 38.34,26.38 45.95,26.46C56.82,26.48 67.69,26.41 78.56,26.48C85.48,38.32 92.33,50.21 99.2,62.08C101.29,58.89 102.732,55.677 104.466,52.278C105.768,49.729 108.488,41.011 113.172,41.003C117.065,40.997 120.18,50.29 127.2,62.1C134.39,50.3 141.06,38.18 148.32,26.43C153.89,26.47 159.46,26.44 165.02,26.45C154.72,43.36 144.51,60.32 134.2,77.23C132.71,79.52 130.77,81.86 127.95,82.43C124.9,82.96 122.23,80.77 120.58,78.44C117.84,74.43 115.65,70.08 113.02,65.99C110.43,70.11 108.16,74.42 105.41,78.44C103.76,80.77 101.08,82.94 98.04,82.44C94.97,81.8 93,79.1 91.42,76.61C83.94,64.02 76.68,51.31 69.01,38.84C61.32,38.92 53.64,38.8 45.95,38.89C41.93,38.98 38.142,40.101 35.052,42.811C28.702,47.771 27.413,58.466 32.853,64.376C36.083,68.006 41.2,69.16 45.94,69.21C56.17,69.25 66.41,69.14 76.64,69.24C79.07,73.37 81.59,77.45 83.93,81.65C70.94,81.64 57.95,81.69 44.97,81.6C37.21,81.57 29.37,78.68 23.93,73.06C13.18,62.91 13.14,43.25 24.7,33.69Z" style="fill:rgb(43,164,201);fill-opacity:0.85;fill-rule:nonzero;"/>
            </g>
        </g>
    </g>
</svg>
