<?xml version="1.0" encoding="UTF-8" standalone="no"?>
<!DOCTYPE svg PUBLIC "-//W3C//DTD SVG 1.1//EN" "http://www.w3.org/Graphics/SVG/1.1/DTD/svg11.dtd">
<svg width="100%" height="100%" viewBox="0 0 1920 1080" version="1.1" xmlns="http://www.w3.org/2000/svg" xmlns:xlink="http://www.w3.org/1999/xlink" xml:space="preserve"  style="fill-rule:evenodd;clip-rule:evenodd;stroke-linejoin:round;stroke-miterlimit:2;">
    <g transform="matrix(10.5479,0,0,10.5479,418.125,161)">
        <g opacity="0.12">
            <g id="edBH1DOvJ383_tr">
                <path d="M74.299,6.695L77.657,5.78L78.807,2.493L80.714,5.406L84.194,5.483L82.016,8.198L83.018,11.532L79.762,10.297L76.901,12.281L77.067,8.802L74.299,6.695Z" style="fill-rule:nonzero;"/>
            </g>
            <g id="edBH1DOvJ384_tr">
                <path d="M87.814,13.908L91.648,11.66L91.968,7.227L95.29,10.179L99.605,9.115L97.824,13.185L100.171,16.959L95.75,16.527L92.884,19.923L91.93,15.581L87.814,13.908Z" style="fill-rule:nonzero;"/>
            </g>
            <g id="edBH1DOvJ385_tr">
                <path d="M94.573,24.887L97.683,26.452L100.734,24.776L100.208,28.216L102.746,30.599L99.31,31.163L97.829,34.311L96.229,31.219L92.778,30.782L95.224,28.307L94.573,24.887Z" style="fill-rule:nonzero;"/>
            </g>
            <path d="M63.733,0L39.579,25.989L39.072,25.482L26.114,9.97L1.772,41.745L99.374,41.745L63.733,0Z" style="fill-rule:nonzero;"/>
            <g>
                <path d="M102.217,49.553C102.217,50.059 102.101,50.499 101.867,50.868C101.636,51.237 101.312,51.52 100.896,51.718C100.479,51.915 100.004,52.012 99.465,52.012C99.315,52.012 99.131,52.001 98.913,51.98C98.694,51.96 98.404,51.899 98.043,51.802C97.681,51.704 97.304,51.56 96.914,51.37L96.914,49.384C97.28,49.636 97.641,49.847 97.996,50.014C98.349,50.181 98.729,50.265 99.134,50.265C99.508,50.265 99.751,50.196 99.86,50.057C99.97,49.919 100.025,49.79 100.025,49.669C100.025,49.45 99.931,49.266 99.742,49.116C99.553,48.966 99.279,48.811 98.919,48.652C98.521,48.466 98.172,48.261 97.873,48.042C97.572,47.821 97.326,47.546 97.136,47.214C96.946,46.884 96.851,46.493 96.851,46.04C96.851,45.604 96.947,45.21 97.139,44.857C97.332,44.505 97.625,44.223 98.019,44.013C98.415,43.803 98.895,43.698 99.465,43.698C99.871,43.698 100.246,43.743 100.59,43.831C100.934,43.917 101.218,44.016 101.441,44.126C101.666,44.234 101.818,44.32 101.902,44.382L101.902,46.282C101.605,46.044 101.274,45.833 100.909,45.645C100.545,45.458 100.154,45.364 99.738,45.364C99.466,45.364 99.268,45.423 99.146,45.54C99.023,45.657 98.962,45.8 98.962,45.972C98.962,46.132 99.023,46.27 99.146,46.387C99.268,46.505 99.486,46.646 99.801,46.814C100.36,47.106 100.808,47.37 101.143,47.603C101.478,47.837 101.74,48.106 101.932,48.413C102.123,48.718 102.217,49.098 102.217,49.553Z" style="fill-rule:nonzero;"/>
                <path d="M95.941,51.909L90.467,51.909L90.467,43.811L95.852,43.811L95.852,45.435L92.656,45.435L92.656,46.919L95.706,46.919L95.706,48.55L92.656,48.55L92.656,50.278L95.941,50.278L95.941,51.909Z" style="fill-rule:nonzero;"/>
                <path d="M87.289,46.37C87.289,45.984 87.185,45.72 86.981,45.577C86.777,45.434 86.412,45.364 85.883,45.364L85.422,45.364L85.422,47.316L85.894,47.316C86.257,47.316 86.538,47.292 86.732,47.241C86.928,47.189 87.069,47.096 87.156,46.96C87.244,46.823 87.289,46.626 87.289,46.37ZM89.52,46.357C89.52,46.657 89.474,46.95 89.381,47.236C89.289,47.522 89.139,47.79 88.933,48.036C88.727,48.284 88.449,48.484 88.098,48.638C87.748,48.792 87.335,48.868 86.859,48.868L85.423,48.868L85.423,51.907L83.234,51.907L83.234,43.809L86.858,43.809C87.334,43.809 87.747,43.887 88.097,44.042C88.448,44.198 88.726,44.4 88.932,44.65C89.138,44.899 89.288,45.171 89.38,45.462C89.473,45.757 89.52,46.054 89.52,46.357Z" style="fill-rule:nonzero;"/>
                <path d="M79.201,48.858L78.138,45.902L77.064,48.858L79.201,48.858ZM82.539,51.909L80.296,51.909L79.705,50.266L76.551,50.266L75.948,51.909L73.707,51.909L76.918,43.811L79.337,43.811L82.539,51.909Z" style="fill-rule:nonzero;"/>
                <path d="M73.361,51.3C73.061,51.475 72.753,51.616 72.439,51.72C72.126,51.825 71.808,51.9 71.488,51.945C71.169,51.989 70.838,52.012 70.496,52.012C69.863,52.012 69.296,51.915 68.795,51.72C68.294,51.525 67.859,51.239 67.491,50.858C67.123,50.479 66.846,50.034 66.664,49.526C66.48,49.018 66.388,48.46 66.388,47.852C66.388,47.155 66.497,46.544 66.713,46.02C66.93,45.497 67.233,45.061 67.623,44.714C68.011,44.368 68.456,44.111 68.954,43.946C69.451,43.782 69.975,43.698 70.527,43.698C71.351,43.698 72.285,43.902 73.33,44.311L73.33,46.462C72.97,46.212 72.614,46.005 72.263,45.839C71.913,45.673 71.5,45.591 71.024,45.591C70.601,45.591 70.208,45.683 69.84,45.87C69.473,46.057 69.178,46.325 68.956,46.671C68.731,47.017 68.621,47.423 68.621,47.886C68.621,48.294 68.718,48.669 68.914,49.011C69.109,49.351 69.38,49.622 69.728,49.823C70.075,50.022 70.467,50.124 70.904,50.124C71.257,50.124 71.591,50.075 71.904,49.98C72.218,49.884 72.483,49.778 72.698,49.661C72.914,49.544 73.134,49.407 73.361,49.247L73.361,51.3Z" style="fill-rule:nonzero;"/>
                <path d="M65.64,49.553C65.64,50.059 65.524,50.499 65.292,50.868C65.059,51.237 64.735,51.52 64.319,51.718C63.903,51.915 63.427,52.012 62.889,52.012C62.739,52.012 62.555,52.001 62.336,51.98C62.118,51.96 61.829,51.899 61.466,51.802C61.105,51.704 60.728,51.56 60.337,51.37L60.337,49.384C60.705,49.636 61.065,49.847 61.419,50.014C61.773,50.181 62.153,50.265 62.558,50.265C62.932,50.265 63.174,50.196 63.284,50.057C63.394,49.919 63.449,49.79 63.449,49.669C63.449,49.45 63.355,49.266 63.167,49.116C62.977,48.966 62.704,48.811 62.343,48.652C61.945,48.466 61.596,48.261 61.296,48.042C60.997,47.821 60.751,47.546 60.56,47.214C60.371,46.884 60.275,46.493 60.275,46.04C60.275,45.604 60.372,45.21 60.563,44.857C60.755,44.505 61.048,44.223 61.443,44.013C61.838,43.803 62.319,43.698 62.889,43.698C63.294,43.698 63.669,43.743 64.013,43.831C64.357,43.917 64.641,44.016 64.865,44.126C65.089,44.234 65.242,44.32 65.326,44.382L65.326,46.282C65.029,46.044 64.698,45.833 64.334,45.645C63.968,45.458 63.579,45.364 63.163,45.364C62.89,45.364 62.692,45.423 62.57,45.54C62.447,45.657 62.386,45.8 62.386,45.972C62.386,46.132 62.447,46.27 62.57,46.387C62.692,46.505 62.91,46.646 63.225,46.814C63.784,47.106 64.231,47.37 64.566,47.603C64.901,47.837 65.165,48.106 65.355,48.413C65.546,48.718 65.64,49.098 65.64,49.553Z" style="fill-rule:nonzero;"/>
                <path d="M59.554,45.78L56.893,45.78L56.893,51.907L54.709,51.907L54.709,45.78L52.047,45.78L52.047,43.81L59.554,43.81L59.554,45.78Z" style="fill-rule:nonzero;"/>
                <path d="M51.038,51.909L48.853,51.909L48.853,48.747L45.558,48.747L45.558,51.909L43.368,51.909L43.368,43.811L45.558,43.811L45.558,46.786L48.853,46.786L48.853,43.811L51.038,43.811L51.038,51.909Z" style="fill-rule:nonzero;"/>
                <path d="M41.914,51.335C41.756,51.401 41.622,51.456 41.51,51.499C41.398,51.542 41.292,51.581 41.188,51.616C41.085,51.651 40.936,51.696 40.74,51.751C40.408,51.835 40.077,51.901 39.748,51.946C39.418,51.991 39.068,52.013 38.702,52.013C37.965,52.013 37.284,51.864 36.659,51.563C36.034,51.263 35.534,50.798 35.159,50.167C34.784,49.536 34.596,48.761 34.596,47.843C34.596,47.251 34.693,46.669 34.887,46.098C35.082,45.527 35.377,45.071 35.775,44.728C36.103,44.444 36.436,44.227 36.773,44.077C37.11,43.927 37.439,43.827 37.76,43.776C38.082,43.725 38.436,43.7 38.823,43.7C39.462,43.7 39.99,43.755 40.405,43.861C40.821,43.968 41.277,44.11 41.772,44.286L41.772,46.202C41.444,45.987 41.096,45.808 40.73,45.665C40.364,45.52 39.906,45.448 39.357,45.448C38.725,45.448 38.219,45.581 37.841,45.848C37.462,46.116 37.198,46.433 37.05,46.804C36.901,47.175 36.828,47.532 36.828,47.88C36.828,48.288 36.913,48.665 37.084,49.009C37.254,49.354 37.513,49.632 37.858,49.839C38.205,50.048 38.622,50.152 39.11,50.152C39.389,50.152 39.686,50.111 40.002,50.03L40.002,49.077L39.016,49.077L39.016,47.448L41.914,47.448L41.914,51.335Z" style="fill-rule:nonzero;"/>
                <g transform="matrix(1,0,0,1,31.311,43.811)">
                    <rect x="0" y="0" width="2.191" height="8.098"/>
                </g>
                <path d="M30.296,51.909L24.78,51.909L24.78,43.811L26.969,43.811L26.969,49.969L30.296,49.969L30.296,51.909Z" style="fill-rule:nonzero;"/>
                <g transform="matrix(1,0,0,1,21.024,43.811)">
                    <rect x="0" y="0" width="2.19" height="8.098"/>
                </g>
                <path d="M20.276,43.811L17.133,52.013L15.865,52.013L13.979,47.241L12.046,52.013L10.768,52.013L7.688,43.811L9.957,43.811L11.465,48.298L13.194,43.811L14.76,43.811L16.458,48.298L18.034,43.811L20.276,43.811Z" style="fill-rule:nonzero;"/>
                <path d="M7.506,45.78L4.845,45.78L4.845,51.907L2.66,51.907L2.66,45.78L0,45.78L0,43.81L7.506,43.81L7.506,45.78Z" style="fill-rule:nonzero;"/>
            </g>
            <g>
                <g id="edBH1DOvJ3823" transform="matrix(1,0,0,1,0.160004,-4e-06)">
                    <g id="edBH1DOvJ3823_to">
                        <path id="edBH1DOvJ38231" serif:id="edBH1DOvJ3823" d="M102.217,49.553C102.217,50.059 102.101,50.499 101.867,50.868C101.636,51.237 101.312,51.52 100.896,51.718C100.479,51.915 100.004,52.012 99.465,52.012C99.315,52.012 99.131,52.001 98.913,51.98C98.694,51.96 98.404,51.899 98.043,51.802C97.681,51.704 97.304,51.56 96.914,51.37L96.914,49.384C97.28,49.636 97.641,49.847 97.996,50.014C98.349,50.181 98.729,50.265 99.134,50.265C99.508,50.265 99.751,50.196 99.86,50.057C99.97,49.919 100.025,49.79 100.025,49.669C100.025,49.45 99.931,49.266 99.742,49.116C99.553,48.966 99.279,48.811 98.919,48.652C98.521,48.466 98.172,48.261 97.873,48.042C97.572,47.821 97.326,47.546 97.136,47.214C96.946,46.884 96.851,46.493 96.851,46.04C96.851,45.604 96.947,45.21 97.139,44.857C97.332,44.505 97.625,44.223 98.019,44.013C98.415,43.803 98.895,43.698 99.465,43.698C99.871,43.698 100.246,43.743 100.59,43.831C100.934,43.917 101.218,44.016 101.441,44.126C101.666,44.234 101.818,44.32 101.902,44.382L101.902,46.282C101.605,46.044 101.274,45.833 100.909,45.645C100.545,45.458 100.154,45.364 99.738,45.364C99.466,45.364 99.268,45.423 99.146,45.54C99.023,45.657 98.962,45.8 98.962,45.972C98.962,46.132 99.023,46.27 99.146,46.387C99.268,46.505 99.486,46.646 99.801,46.814C100.36,47.106 100.808,47.37 101.143,47.603C101.478,47.837 101.74,48.106 101.932,48.413C102.123,48.718 102.217,49.098 102.217,49.553Z" style="fill-opacity:0;fill-rule:nonzero;"/>
                    </g>
                </g>
                <g id="edBH1DOvJ3824_to">
                    <path id="edBH1DOvJ3824" d="M95.941,51.909L90.467,51.909L90.467,43.811L95.852,43.811L95.852,45.435L92.656,45.435L92.656,46.919L95.706,46.919L95.706,48.55L92.656,48.55L92.656,50.278L95.941,50.278L95.941,51.909Z" style="fill-opacity:0;fill-rule:nonzero;"/>
                </g>
                <g id="edBH1DOvJ3825_to">
                    <path id="edBH1DOvJ3825" d="M87.289,46.37C87.289,45.984 87.185,45.72 86.981,45.577C86.777,45.434 86.412,45.364 85.883,45.364L85.422,45.364L85.422,47.316L85.894,47.316C86.257,47.316 86.538,47.292 86.732,47.241C86.928,47.189 87.069,47.096 87.156,46.96C87.244,46.823 87.289,46.626 87.289,46.37ZM89.52,46.357C89.52,46.657 89.474,46.95 89.381,47.236C89.289,47.522 89.139,47.79 88.933,48.036C88.727,48.284 88.449,48.484 88.098,48.638C87.748,48.792 87.335,48.868 86.859,48.868L85.423,48.868L85.423,51.907L83.234,51.907L83.234,43.809L86.858,43.809C87.334,43.809 87.747,43.887 88.097,44.042C88.448,44.198 88.726,44.4 88.932,44.65C89.138,44.899 89.288,45.171 89.38,45.462C89.473,45.757 89.52,46.054 89.52,46.357Z" style="fill-opacity:0;fill-rule:nonzero;"/>
                </g>
                <g id="edBH1DOvJ3826_to">
                    <path id="edBH1DOvJ3826" d="M79.201,48.858L78.138,45.902L77.064,48.858L79.201,48.858ZM82.539,51.909L80.296,51.909L79.705,50.266L76.551,50.266L75.948,51.909L73.707,51.909L76.918,43.811L79.337,43.811L82.539,51.909Z" style="fill-opacity:0;fill-rule:nonzero;"/>
                </g>
                <g id="edBH1DOvJ3827_to">
                    <path id="edBH1DOvJ3827" d="M73.361,51.3C73.061,51.475 72.753,51.616 72.439,51.72C72.126,51.825 71.808,51.9 71.488,51.945C71.169,51.989 70.838,52.012 70.496,52.012C69.863,52.012 69.296,51.915 68.795,51.72C68.294,51.525 67.859,51.239 67.491,50.858C67.123,50.479 66.846,50.034 66.664,49.526C66.48,49.018 66.388,48.46 66.388,47.852C66.388,47.155 66.497,46.544 66.713,46.02C66.93,45.497 67.233,45.061 67.623,44.714C68.011,44.368 68.456,44.111 68.954,43.946C69.451,43.782 69.975,43.698 70.527,43.698C71.351,43.698 72.285,43.902 73.33,44.311L73.33,46.462C72.97,46.212 72.614,46.005 72.263,45.839C71.913,45.673 71.5,45.591 71.024,45.591C70.601,45.591 70.208,45.683 69.84,45.87C69.473,46.057 69.178,46.325 68.956,46.671C68.731,47.017 68.621,47.423 68.621,47.886C68.621,48.294 68.718,48.669 68.914,49.011C69.109,49.351 69.38,49.622 69.728,49.823C70.075,50.022 70.467,50.124 70.904,50.124C71.257,50.124 71.591,50.075 71.904,49.98C72.218,49.884 72.483,49.778 72.698,49.661C72.914,49.544 73.134,49.407 73.361,49.247L73.361,51.3Z" style="fill-opacity:0;fill-rule:nonzero;"/>
                </g>
                <g id="edBH1DOvJ3828" transform="matrix(1,0,0,1,-1e-06,-4e-06)">
                    <g id="edBH1DOvJ3828_to">
                        <path id="edBH1DOvJ38281" serif:id="edBH1DOvJ3828" d="M65.64,49.553C65.64,50.059 65.524,50.499 65.292,50.868C65.059,51.237 64.735,51.52 64.319,51.718C63.903,51.915 63.427,52.012 62.889,52.012C62.739,52.012 62.555,52.001 62.336,51.98C62.118,51.96 61.829,51.899 61.466,51.802C61.105,51.704 60.728,51.56 60.337,51.37L60.337,49.384C60.705,49.636 61.065,49.847 61.419,50.014C61.773,50.181 62.153,50.265 62.558,50.265C62.932,50.265 63.174,50.196 63.284,50.057C63.394,49.919 63.449,49.79 63.449,49.669C63.449,49.45 63.355,49.266 63.167,49.116C62.977,48.966 62.704,48.811 62.343,48.652C61.945,48.466 61.596,48.261 61.296,48.042C60.997,47.821 60.751,47.546 60.56,47.214C60.371,46.884 60.275,46.493 60.275,46.04C60.275,45.604 60.372,45.21 60.563,44.857C60.755,44.505 61.048,44.223 61.443,44.013C61.838,43.803 62.319,43.698 62.889,43.698C63.294,43.698 63.669,43.743 64.013,43.831C64.357,43.917 64.641,44.016 64.865,44.126C65.089,44.234 65.242,44.32 65.326,44.382L65.326,46.282C65.029,46.044 64.698,45.833 64.334,45.645C63.968,45.458 63.579,45.364 63.163,45.364C62.89,45.364 62.692,45.423 62.57,45.54C62.447,45.657 62.386,45.8 62.386,45.972C62.386,46.132 62.447,46.27 62.57,46.387C62.692,46.505 62.91,46.646 63.225,46.814C63.784,47.106 64.231,47.37 64.566,47.603C64.901,47.837 65.165,48.106 65.355,48.413C65.546,48.718 65.64,49.098 65.64,49.553Z" style="fill-opacity:0;fill-rule:nonzero;"/>
                    </g>
                </g>
                <g id="edBH1DOvJ3829_to">
                    <path id="edBH1DOvJ3829" d="M59.554,45.78L56.893,45.78L56.893,51.907L54.709,51.907L54.709,45.78L52.047,45.78L52.047,43.81L59.554,43.81L59.554,45.78Z" style="fill-opacity:0;fill-rule:nonzero;"/>
                </g>
                <g id="edBH1DOvJ3830_to">
                    <path id="edBH1DOvJ3830" d="M51.038,51.909L48.853,51.909L48.853,48.747L45.558,48.747L45.558,51.909L43.368,51.909L43.368,43.811L45.558,43.811L45.558,46.786L48.853,46.786L48.853,43.811L51.038,43.811L51.038,51.909Z" style="fill-opacity:0;fill-rule:nonzero;"/>
                </g>
                <g id="edBH1DOvJ3831_to">
                    <path id="edBH1DOvJ3831" d="M41.914,51.335C41.756,51.401 41.622,51.456 41.51,51.499C41.398,51.542 41.292,51.581 41.188,51.616C41.085,51.651 40.936,51.696 40.74,51.751C40.408,51.835 40.077,51.901 39.748,51.946C39.418,51.991 39.068,52.013 38.702,52.013C37.965,52.013 37.284,51.864 36.659,51.563C36.034,51.263 35.534,50.798 35.159,50.167C34.784,49.536 34.596,48.761 34.596,47.843C34.596,47.251 34.693,46.669 34.887,46.098C35.082,45.527 35.377,45.071 35.775,44.728C36.103,44.444 36.436,44.227 36.773,44.077C37.11,43.927 37.439,43.827 37.76,43.776C38.082,43.725 38.436,43.7 38.823,43.7C39.462,43.7 39.99,43.755 40.405,43.861C40.821,43.968 41.277,44.11 41.772,44.286L41.772,46.202C41.444,45.987 41.096,45.808 40.73,45.665C40.364,45.52 39.906,45.448 39.357,45.448C38.725,45.448 38.219,45.581 37.841,45.848C37.462,46.116 37.198,46.433 37.05,46.804C36.901,47.175 36.828,47.532 36.828,47.88C36.828,48.288 36.913,48.665 37.084,49.009C37.254,49.354 37.513,49.632 37.858,49.839C38.205,50.048 38.622,50.152 39.11,50.152C39.389,50.152 39.686,50.111 40.002,50.03L40.002,49.077L39.016,49.077L39.016,47.448L41.914,47.448L41.914,51.335Z" style="fill-opacity:0;fill-rule:nonzero;"/>
                </g>
                <g id="edBH1DOvJ3832" transform="matrix(1,0,0,1,31.311,43.811)">
                    <g id="edBH1DOvJ3832_to">
                        <rect id="edBH1DOvJ38321" serif:id="edBH1DOvJ3832" x="0" y="0" width="2.191" height="8.098" style="fill-opacity:0;"/>
                    </g>
                </g>
                <g id="edBH1DOvJ3833_to">
                    <path id="edBH1DOvJ3833" d="M30.296,51.909L24.78,51.909L24.78,43.811L26.969,43.811L26.969,49.969L30.296,49.969L30.296,51.909Z" style="fill-opacity:0;fill-rule:nonzero;"/>
                </g>
                <g id="edBH1DOvJ3834" transform="matrix(1,0,0,1,21.024,43.811)">
                    <g id="edBH1DOvJ3834_to">
                        <rect id="edBH1DOvJ38341" serif:id="edBH1DOvJ3834" x="0" y="0" width="2.19" height="8.098" style="fill-opacity:0;"/>
                    </g>
                </g>
                <g id="edBH1DOvJ3835_to">
                    <path id="edBH1DOvJ3835" d="M20.276,43.811L17.133,52.013L15.865,52.013L13.979,47.241L12.046,52.013L10.768,52.013L7.688,43.811L9.957,43.811L11.465,48.298L13.194,43.811L14.76,43.811L16.458,48.298L18.034,43.811L20.276,43.811Z" style="fill-opacity:0;fill-rule:nonzero;"/>
                </g>
                <g id="edBH1DOvJ3836_to">
                    <path id="edBH1DOvJ3836" d="M7.506,45.78L4.845,45.78L4.845,51.907L2.66,51.907L2.66,45.78L0,45.78L0,43.81L7.506,43.81L7.506,45.78Z" style="fill-opacity:0;fill-rule:nonzero;"/>
                </g>
            </g>
            <path d="M39.771,23.917L47.446,15.991C44.296,7.708 35.691,1.187 25.844,1.187C13.3,1.187 3.132,10.798 3.132,22.653C3.132,26.751 4.347,30.579 6.456,33.837L26.063,7.591" style="fill-rule:nonzero;"/>
        </g>
    </g>
</svg>
