<svg width="100%" height="50vh" id="eb6INoC59RZ1" xmlns="http://www.w3.org/2000/svg" xmlns:xlink="http://www.w3.org/1999/xlink" viewBox="0 0 1920 1080" shape-rendering="geometricPrecision" text-rendering="geometricPrecision">
<style><![CDATA[
#eb6INoC59RZ3_tr {animation: eb6INoC59RZ3_tr__tr 3000ms linear 1 normal forwards}@keyframes eb6INoC59RZ3_tr__tr { 0% {transform: translate(79.246506px,7.387px) rotate(0deg)} 2.666667% {transform: translate(79.246506px,7.387px) rotate(0deg)} 96.666667% {transform: translate(79.246506px,7.387px) rotate(370.339579deg)} 100% {transform: translate(79.246506px,7.387px) rotate(370.339579deg)}} #eb6INoC59RZ4_tr {animation: eb6INoC59RZ4_tr__tr 3000ms linear 1 normal forwards}@keyframes eb6INoC59RZ4_tr__tr { 0% {transform: translate(93.992504px,13.575px) rotate(0deg)} 2.666667% {transform: translate(93.992504px,13.575px) rotate(0deg)} 96.666667% {transform: translate(93.992504px,13.575px) rotate(361.522289deg)} 100% {transform: translate(93.992504px,13.575px) rotate(361.522289deg)}} #eb6INoC59RZ5_tr {animation: eb6INoC59RZ5_tr__tr 3000ms linear 1 normal forwards}@keyframes eb6INoC59RZ5_tr__tr { 0% {transform: translate(97.762005px,29.543498px) rotate(0deg)} 2.666667% {transform: translate(97.762005px,29.543498px) rotate(0deg)} 96.666667% {transform: translate(97.762005px,29.543498px) rotate(363.858118deg)} 100% {transform: translate(97.762005px,29.543498px) rotate(363.858118deg)}} #eb6INoC59RZ23_to {animation: eb6INoC59RZ23_to__to 3000ms linear 1 normal forwards}@keyframes eb6INoC59RZ23_to__to { 0% {transform: translate(99.534004px,47.854996px)} 29% {transform: translate(99.534004px,47.854996px)} 57.333333% {transform: translate(99.214px,61.438389px)} 100% {transform: translate(99.214px,61.438389px)}} #eb6INoC59RZ23 {animation: eb6INoC59RZ23_f_o 3000ms linear 1 normal forwards}@keyframes eb6INoC59RZ23_f_o { 0% {fill-opacity: 0} 29% {fill-opacity: 1} 57.333333% {fill-opacity: 0} 96.666667% {fill-opacity: 0} 100% {fill-opacity: 0}} #eb6INoC59RZ24_to {animation: eb6INoC59RZ24_to__to 3000ms linear 1 normal forwards}@keyframes eb6INoC59RZ24_to__to { 0% {transform: translate(93.204006px,47.860003px)} 27.666667% {transform: translate(93.204006px,47.860003px)} 57.333333% {transform: translate(93.204006px,57.982392px)} 100% {transform: translate(93.204006px,57.982392px)}} #eb6INoC59RZ24 {animation: eb6INoC59RZ24_f_o 3000ms linear 1 normal forwards}@keyframes eb6INoC59RZ24_f_o { 0% {fill-opacity: 0} 27.666667% {fill-opacity: 1} 57.333333% {fill-opacity: 0} 96.666667% {fill-opacity: 0} 100% {fill-opacity: 0}} #eb6INoC59RZ25_to {animation: eb6INoC59RZ25_to__to 3000ms linear 1 normal forwards}@keyframes eb6INoC59RZ25_to__to { 0% {transform: translate(86.377007px,47.858002px)} 26.666667% {transform: translate(86.377007px,47.858002px)} 57.333333% {transform: translate(87.324007px,57.982391px)} 100% {transform: translate(87.324007px,57.982391px)}} #eb6INoC59RZ25 {animation: eb6INoC59RZ25_f_o 3000ms linear 1 normal forwards}@keyframes eb6INoC59RZ25_f_o { 0% {fill-opacity: 0} 26.666667% {fill-opacity: 1} 57.333333% {fill-opacity: 0} 96.666667% {fill-opacity: 0} 100% {fill-opacity: 0}} #eb6INoC59RZ26_to {animation: eb6INoC59RZ26_to__to 3000ms linear 1 normal forwards}@keyframes eb6INoC59RZ26_to__to { 0% {transform: translate(78.122993px,47.860001px)} 25.666667% {transform: translate(78.122993px,47.860001px)} 57.333333% {transform: translate(78.817993px,57.98239px)} 100% {transform: translate(78.817993px,57.98239px)}} #eb6INoC59RZ26 {animation: eb6INoC59RZ26_f_o 3000ms linear 1 normal forwards}@keyframes eb6INoC59RZ26_f_o { 0% {fill-opacity: 0} 25.666667% {fill-opacity: 1} 57.333333% {fill-opacity: 0} 96.666667% {fill-opacity: 0} 100% {fill-opacity: 0}} #eb6INoC59RZ27_to {animation: eb6INoC59RZ27_to__to 3000ms linear 1 normal forwards}@keyframes eb6INoC59RZ27_to__to { 0% {transform: translate(69.874512px,47.854996px)} 24.666667% {transform: translate(69.874512px,47.854996px)} 57.333333% {transform: translate(70.220512px,57.874385px)} 100% {transform: translate(70.220512px,57.874385px)}} #eb6INoC59RZ27 {animation: eb6INoC59RZ27_f_o 3000ms linear 1 normal forwards}@keyframes eb6INoC59RZ27_f_o { 0% {fill-opacity: 0} 24.666667% {fill-opacity: 1} 57.333333% {fill-opacity: 0} 96.666667% {fill-opacity: 0} 100% {fill-opacity: 0}} #eb6INoC59RZ28_to {animation: eb6INoC59RZ28_to__to 3000ms linear 1 normal forwards}@keyframes eb6INoC59RZ28_to__to { 0% {transform: translate(62.957499px,47.854996px)} 24% {transform: translate(62.957499px,47.854996px)} 57.333333% {transform: translate(63.7055px,57.874389px)} 100% {transform: translate(63.7055px,57.874389px)}} #eb6INoC59RZ28 {animation: eb6INoC59RZ28_f_o 3000ms linear 1 normal forwards}@keyframes eb6INoC59RZ28_f_o { 0% {fill-opacity: 0} 24% {fill-opacity: 1} 57.333333% {fill-opacity: 0} 96.666667% {fill-opacity: 0} 100% {fill-opacity: 0}} #eb6INoC59RZ29_to {animation: eb6INoC59RZ29_to__to 3000ms linear 1 normal forwards}@keyframes eb6INoC59RZ29_to__to { 0% {transform: translate(55.800501px,47.858498px)} 23% {transform: translate(55.800501px,47.858498px)} 57.333333% {transform: translate(55.253501px,57.765887px)} 100% {transform: translate(55.253501px,57.765887px)}} #eb6INoC59RZ29 {animation: eb6INoC59RZ29_f_o 3000ms linear 1 normal forwards}@keyframes eb6INoC59RZ29_f_o { 0% {fill-opacity: 0} 23% {fill-opacity: 1} 57.333333% {fill-opacity: 0} 96.666667% {fill-opacity: 0} 100% {fill-opacity: 0}} #eb6INoC59RZ30_to {animation: eb6INoC59RZ30_to__to 3000ms linear 1 normal forwards}@keyframes eb6INoC59RZ30_to__to { 0% {transform: translate(47.202999px,47.860001px)} 22% {transform: translate(47.202999px,47.860001px)} 57.333333% {transform: translate(47.664999px,57.76539px)} 100% {transform: translate(47.664999px,57.76539px)}} #eb6INoC59RZ30 {animation: eb6INoC59RZ30_f_o 3000ms linear 1 normal forwards}@keyframes eb6INoC59RZ30_f_o { 0% {fill-opacity: 0} 22% {fill-opacity: 1} 57.333333% {fill-opacity: 0} 96.666667% {fill-opacity: 0} 100% {fill-opacity: 0}} #eb6INoC59RZ31_to {animation: eb6INoC59RZ31_to__to 3000ms linear 1 normal forwards}@keyframes eb6INoC59RZ31_to__to { 0% {transform: translate(38.255001px,47.856501px)} 21.333333% {transform: translate(38.255001px,47.856501px)} 57.333333% {transform: translate(38.255001px,57.65789px)} 100% {transform: translate(38.255001px,57.65789px)}} #eb6INoC59RZ31 {animation: eb6INoC59RZ31_f_o 3000ms linear 1 normal forwards}@keyframes eb6INoC59RZ31_f_o { 0% {fill-opacity: 0} 21.333333% {fill-opacity: 1} 57.333333% {fill-opacity: 0} 96.666667% {fill-opacity: 0} 100% {fill-opacity: 0}} #eb6INoC59RZ32_to {animation: eb6INoC59RZ32_to__to 3000ms linear 1 normal forwards}@keyframes eb6INoC59RZ32_to__to { 0% {transform: translate(32.4065px,47.860001px)} 20.333333% {transform: translate(32.4065px,47.860001px)} 57.333333% {transform: translate(33.500499px,57.550389px)} 100% {transform: translate(33.500499px,57.550389px)}} #eb6INoC59RZ32 {animation: eb6INoC59RZ32_f_o 3000ms linear 1 normal forwards}@keyframes eb6INoC59RZ32_f_o { 0% {fill-opacity: 0} 20.333333% {fill-opacity: 1} 57.333333% {fill-opacity: 0} 96.666667% {fill-opacity: 0} 100% {fill-opacity: 0}} #eb6INoC59RZ33_to {animation: eb6INoC59RZ33_to__to 3000ms linear 1 normal forwards}@keyframes eb6INoC59RZ33_to__to { 0% {transform: translate(27.537999px,47.860001px)} 19.666667% {transform: translate(27.537999px,47.860001px)} 57.333333% {transform: translate(28.046999px,57.55039px)} 100% {transform: translate(28.046999px,57.55039px)}} #eb6INoC59RZ33 {animation: eb6INoC59RZ33_f_o 3000ms linear 1 normal forwards}@keyframes eb6INoC59RZ33_f_o { 0% {fill-opacity: 0} 19.666667% {fill-opacity: 1} 57.333333% {fill-opacity: 0} 96.666667% {fill-opacity: 0} 100% {fill-opacity: 0}} #eb6INoC59RZ34_to {animation: eb6INoC59RZ34_to__to 3000ms linear 1 normal forwards}@keyframes eb6INoC59RZ34_to__to { 0% {transform: translate(22.119px,47.860001px)} 19% {transform: translate(22.119px,47.860001px)} 57.333333% {transform: translate(21.189px,61.546389px)} 100% {transform: translate(21.189px,61.546389px)}} #eb6INoC59RZ34 {animation: eb6INoC59RZ34_f_o 3000ms linear 1 normal forwards}@keyframes eb6INoC59RZ34_f_o { 0% {fill-opacity: 0} 19% {fill-opacity: 1} 57.333333% {fill-opacity: 0} 96.666667% {fill-opacity: 0} 100% {fill-opacity: 0}} #eb6INoC59RZ35_to {animation: eb6INoC59RZ35_to__to 3000ms linear 1 normal forwards}@keyframes eb6INoC59RZ35_to__to { 0% {transform: translate(13.982002px,47.912001px)} 18% {transform: translate(13.982002px,47.912001px)} 57.333333% {transform: translate(13.800002px,57.49839px)} 100% {transform: translate(13.800002px,57.49839px)}} #eb6INoC59RZ35 {animation: eb6INoC59RZ35_f_o 3000ms linear 1 normal forwards}@keyframes eb6INoC59RZ35_f_o { 0% {fill-opacity: 0} 18% {fill-opacity: 1} 57.333333% {fill-opacity: 0} 96.666667% {fill-opacity: 0} 100% {fill-opacity: 0}} #eb6INoC59RZ36_to {animation: eb6INoC59RZ36_to__to 3000ms linear 1 normal forwards}@keyframes eb6INoC59RZ36_to__to { 0% {transform: translate(3.753px,47.858498px)} 16.666667% {transform: translate(3.753px,47.858498px)} 57.333333% {transform: translate(3.753px,61.546887px)} 100% {transform: translate(3.753px,61.546887px)}} #eb6INoC59RZ36 {animation: eb6INoC59RZ36_f_o 3000ms linear 1 normal forwards}@keyframes eb6INoC59RZ36_f_o { 0% {fill-opacity: 0} 16.666667% {fill-opacity: 1} 57.333333% {fill-opacity: 0} 100% {fill-opacity: 0}}
]]></style>
<g transform="matrix(11.595496 0 0 11.595496 357.945886 228.916861)" opacity="0.3" clip-rule="evenodd"><g id="eb6INoC59RZ3_tr" transform="translate(79.246506,7.387) rotate(0)"><path d="M74.299,6.695l3.358-.915l1.15-3.287l1.907,2.913l3.48.077-2.178,2.715l1.002,3.334-3.256-1.235-2.861,1.984.166-3.479-2.768-2.107Z" transform="translate(-79.246506,-7.387)" clip-rule="evenodd" fill="#f4f5f6" stroke-linejoin="round" stroke-miterlimit="1"/></g><g id="eb6INoC59RZ4_tr" transform="translate(93.992504,13.575) rotate(0)"><path d="M87.814,13.908l3.834-2.248.32-4.433l3.322,2.952l4.315-1.064-1.781,4.07l2.347,3.774-4.421-.432-2.866,3.396-.954-4.342-4.116-1.673Z" transform="translate(-93.992504,-13.575)" clip-rule="evenodd" fill="#f4f5f6" stroke-linejoin="round" stroke-miterlimit="1"/></g><g id="eb6INoC59RZ5_tr" transform="translate(97.762005,29.543498) rotate(0)"><path d="M94.573,24.887l3.11,1.565l3.051-1.676-.526,3.44l2.538,2.383-3.436.564-1.481,3.148-1.6-3.092-3.451-.437l2.446-2.475-.651-3.42Z" transform="translate(-97.762005,-29.543498)" clip-rule="evenodd" fill="#f4f5f6" stroke-linejoin="round" stroke-miterlimit="1"/></g><path d="M63.733,0L39.579,25.989l-.507-.507L26.114,9.97L1.772,41.745h97.602L63.733,0Z" clip-rule="evenodd" fill="#f4f5f6" stroke-linejoin="round" stroke-miterlimit="1"/><g><path d="M102.217,49.553c0,.506-.116.946-.35,1.315-.231.369-.555.652-.971.85-.417.197-.892.294-1.431.294-.15,0-.334-.011-.552-.032-.219-.02-.509-.081-.87-.178-.362-.098-.739-.242-1.129-.432v-1.986c.366.252.727.463,1.082.63.353.167.733.251,1.138.251.374,0,.617-.069.726-.208.11-.138.165-.267.165-.388c0-.219-.094-.403-.283-.553s-.463-.305-.823-.464c-.398-.186-.747-.391-1.046-.61-.301-.221-.547-.496-.737-.828-.19-.33-.285-.721-.285-1.174c0-.436.096-.83.288-1.183.193-.352.486-.634.88-.844.396-.21.876-.315,1.446-.315.406,0,.781.045,1.125.133.344.086.628.185.851.295.225.108.377.194.461.256v1.9c-.297-.238-.628-.449-.993-.637-.364-.187-.755-.281-1.171-.281-.272,0-.47.059-.592.176-.123.117-.184.26-.184.432c0,.16.061.298.184.415.122.118.34.259.655.427.559.292,1.007.556,1.342.789.335.234.597.503.789.81.191.305.285.685.285,1.14Z" clip-rule="evenodd" fill="#f4f5f6" stroke-linejoin="round" stroke-miterlimit="1"/><path d="M95.941,51.909h-5.474v-8.098h5.385v1.624h-3.196v1.484h3.05v1.631h-3.05v1.728h3.285v1.631Z" clip-rule="evenodd" fill="#f4f5f6" stroke-linejoin="round" stroke-miterlimit="1"/><path d="M87.289,46.37c0-.386-.104-.65-.308-.793s-.569-.213-1.098-.213h-.461v1.952h.472c.363,0,.644-.024.838-.075.196-.052.337-.145.424-.281.088-.137.133-.334.133-.59Zm2.231-.013c0,.3-.046.593-.139.879-.092.286-.242.554-.448.8-.206.248-.484.448-.835.602-.35.154-.763.23-1.239.23h-1.436v3.039h-2.189v-8.098h3.624c.476,0,.889.078,1.239.233.351.156.629.358.835.608.206.249.356.521.448.812.093.295.14.592.14.895Z" clip-rule="evenodd" fill="#f4f5f6" stroke-linejoin="round" stroke-miterlimit="1"/><path d="M79.201,48.858l-1.063-2.956-1.074,2.956h2.137Zm3.338,3.051h-2.243l-.591-1.643h-3.154l-.603,1.643h-2.241l3.211-8.098h2.419l3.202,8.098Z" clip-rule="evenodd" fill="#f4f5f6" stroke-linejoin="round" stroke-miterlimit="1"/><path d="M73.361,51.3c-.3.175-.608.316-.922.42-.313.105-.631.18-.951.225-.319.044-.65.067-.992.067-.633,0-1.2-.097-1.701-.292s-.936-.481-1.304-.862c-.368-.379-.645-.824-.827-1.332-.184-.508-.276-1.066-.276-1.674c0-.697.109-1.308.325-1.832.217-.523.52-.959.91-1.306.388-.346.833-.603,1.331-.768.497-.164,1.021-.248,1.573-.248.824,0,1.758.204,2.803.613v2.151c-.36-.25-.716-.457-1.067-.623-.35-.166-.763-.248-1.239-.248-.423,0-.816.092-1.184.279-.367.187-.662.455-.884.801-.225.346-.335.752-.335,1.215c0,.408.097.783.293,1.125.195.34.466.611.814.812.347.199.739.301,1.176.301.353,0,.687-.049,1-.144.314-.096.579-.202.794-.319.216-.117.436-.254.663-.414v2.053Z" clip-rule="evenodd" fill="#f4f5f6" stroke-linejoin="round" stroke-miterlimit="1"/><path d="M65.64,49.553c0,.506-.116.946-.348,1.315-.233.369-.557.652-.973.85-.416.197-.892.294-1.43.294-.15,0-.334-.011-.553-.032-.218-.02-.507-.081-.87-.178-.361-.098-.738-.242-1.129-.432v-1.986c.368.252.728.463,1.082.63s.734.251,1.139.251c.374,0,.616-.069.726-.208.11-.138.165-.267.165-.388c0-.219-.094-.403-.282-.553-.19-.15-.463-.305-.824-.464-.398-.186-.747-.391-1.047-.61-.299-.221-.545-.496-.736-.828-.189-.33-.285-.721-.285-1.174c0-.436.097-.83.288-1.183.192-.352.485-.634.88-.844s.876-.315,1.446-.315c.405,0,.78.045,1.124.133.344.086.628.185.852.295.224.108.377.194.461.256v1.9c-.297-.238-.628-.449-.992-.637-.366-.187-.755-.281-1.171-.281-.273,0-.471.059-.593.176-.123.117-.184.26-.184.432c0,.16.061.298.184.415.122.118.34.259.655.427.559.292,1.006.556,1.341.789.335.234.599.503.789.81.191.305.285.685.285,1.14Z" clip-rule="evenodd" fill="#f4f5f6" stroke-linejoin="round" stroke-miterlimit="1"/><path d="M59.554,45.78h-2.661v6.127h-2.184v-6.127h-2.662v-1.97h7.507v1.97Z" clip-rule="evenodd" fill="#f4f5f6" stroke-linejoin="round" stroke-miterlimit="1"/><path d="M51.038,51.909h-2.185v-3.162h-3.295v3.162h-2.19v-8.098h2.19v2.975h3.295v-2.975h2.185v8.098Z" clip-rule="evenodd" fill="#f4f5f6" stroke-linejoin="round" stroke-miterlimit="1"/><path d="M41.914,51.335c-.158.066-.292.121-.404.164s-.218.082-.322.117c-.103.035-.252.08-.448.135-.332.084-.663.15-.992.195-.33.045-.68.067-1.046.067-.737,0-1.418-.149-2.043-.45-.625-.3-1.125-.765-1.5-1.396s-.563-1.406-.563-2.324c0-.592.097-1.174.291-1.745.195-.571.49-1.027.888-1.37.328-.284.661-.501.998-.651s.666-.25.987-.301c.322-.051.676-.076,1.063-.076.639,0,1.167.055,1.582.161.416.107.872.249,1.367.425v1.916c-.328-.215-.676-.394-1.042-.537-.366-.145-.824-.217-1.373-.217-.632,0-1.138.133-1.516.4-.379.268-.643.585-.791.956-.149.371-.222.728-.222,1.076c0,.408.085.785.256,1.129.17.345.429.623.774.83.347.209.764.313,1.252.313.279,0,.576-.041.892-.122v-.953h-.986v-1.629h2.898v3.887Z" clip-rule="evenodd" fill="#f4f5f6" stroke-linejoin="round" stroke-miterlimit="1"/><rect width="2.191" height="8.098" rx="0" ry="0" transform="translate(31.311001 43.811001)" clip-rule="evenodd" fill="#f4f5f6" stroke-linejoin="round" stroke-miterlimit="1"/><path d="M30.296,51.909h-5.516v-8.098h2.189v6.158h3.327v1.94Z" clip-rule="evenodd" fill="#f4f5f6" stroke-linejoin="round" stroke-miterlimit="1"/><rect width="2.19" height="8.098" rx="0" ry="0" transform="translate(21.024 43.811001)" clip-rule="evenodd" fill="#f4f5f6" stroke-linejoin="round" stroke-miterlimit="1"/><path d="M20.276,43.811l-3.143,8.202h-1.268l-1.886-4.772-1.933,4.772h-1.278l-3.08-8.202h2.269l1.508,4.487l1.729-4.487h1.566l1.698,4.487l1.576-4.487h2.242Z" clip-rule="evenodd" fill="#f4f5f6" stroke-linejoin="round" stroke-miterlimit="1"/><path d="M7.506,45.78h-2.661v6.127h-2.185v-6.127h-2.66v-1.97h7.506v1.97Z" clip-rule="evenodd" fill="#f4f5f6" stroke-linejoin="round" stroke-miterlimit="1"/></g><g><g id="eb6INoC59RZ23_to" transform="translate(99.534004,47.854996)"><path id="eb6INoC59RZ23" d="M102.217,49.553c0,.506-.116.946-.35,1.315-.231.369-.555.652-.971.85-.417.197-.892.294-1.431.294-.15,0-.334-.011-.552-.032-.219-.02-.509-.081-.87-.178-.362-.098-.739-.242-1.129-.432v-1.986c.366.252.727.463,1.082.63.353.167.733.251,1.138.251.374,0,.617-.069.726-.208.11-.138.165-.267.165-.388c0-.219-.094-.403-.283-.553s-.463-.305-.823-.464c-.398-.186-.747-.391-1.046-.61-.301-.221-.547-.496-.737-.828-.19-.33-.285-.721-.285-1.174c0-.436.096-.83.288-1.183.193-.352.486-.634.88-.844.396-.21.876-.315,1.446-.315.406,0,.781.045,1.125.133.344.086.628.185.851.295.225.108.377.194.461.256v1.9c-.297-.238-.628-.449-.993-.637-.364-.187-.755-.281-1.171-.281-.272,0-.47.059-.592.176-.123.117-.184.26-.184.432c0,.16.061.298.184.415.122.118.34.259.655.427.559.292,1.007.556,1.342.789.335.234.597.503.789.81.191.305.285.685.285,1.14Z" transform="translate(-99.374,-47.855)" clip-rule="evenodd" fill="#fa02b7" fill-opacity="0" stroke-linejoin="round" stroke-miterlimit="1"/></g><g id="eb6INoC59RZ24_to" transform="translate(93.204006,47.860003)"><path id="eb6INoC59RZ24" d="M95.941,51.909h-5.474v-8.098h5.385v1.624h-3.196v1.484h3.05v1.631h-3.05v1.728h3.285v1.631Z" transform="translate(-93.204006,-47.860003)" clip-rule="evenodd" fill="#fa02b7" fill-opacity="0" stroke-linejoin="round" stroke-miterlimit="1"/></g><g id="eb6INoC59RZ25_to" transform="translate(86.377007,47.858002)"><path id="eb6INoC59RZ25" d="M87.289,46.37c0-.386-.104-.65-.308-.793s-.569-.213-1.098-.213h-.461v1.952h.472c.363,0,.644-.024.838-.075.196-.052.337-.145.424-.281.088-.137.133-.334.133-.59Zm2.231-.013c0,.3-.046.593-.139.879-.092.286-.242.554-.448.8-.206.248-.484.448-.835.602-.35.154-.763.23-1.239.23h-1.436v3.039h-2.189v-8.098h3.624c.476,0,.889.078,1.239.233.351.156.629.358.835.608.206.249.356.521.448.812.093.295.14.592.14.895Z" transform="translate(-86.377007,-47.858002)" clip-rule="evenodd" fill="#fa02b7" fill-opacity="0" stroke-linejoin="round" stroke-miterlimit="1"/></g><g id="eb6INoC59RZ26_to" transform="translate(78.122993,47.860001)"><path id="eb6INoC59RZ26" d="M79.201,48.858l-1.063-2.956-1.074,2.956h2.137Zm3.338,3.051h-2.243l-.591-1.643h-3.154l-.603,1.643h-2.241l3.211-8.098h2.419l3.202,8.098Z" transform="translate(-78.122993,-47.860001)" clip-rule="evenodd" fill="#fa02b7" fill-opacity="0" stroke-linejoin="round" stroke-miterlimit="1"/></g><g id="eb6INoC59RZ27_to" transform="translate(69.874512,47.854996)"><path id="eb6INoC59RZ27" d="M73.361,51.3c-.3.175-.608.316-.922.42-.313.105-.631.18-.951.225-.319.044-.65.067-.992.067-.633,0-1.2-.097-1.701-.292s-.936-.481-1.304-.862c-.368-.379-.645-.824-.827-1.332-.184-.508-.276-1.066-.276-1.674c0-.697.109-1.308.325-1.832.217-.523.52-.959.91-1.306.388-.346.833-.603,1.331-.768.497-.164,1.021-.248,1.573-.248.824,0,1.758.204,2.803.613v2.151c-.36-.25-.716-.457-1.067-.623-.35-.166-.763-.248-1.239-.248-.423,0-.816.092-1.184.279-.367.187-.662.455-.884.801-.225.346-.335.752-.335,1.215c0,.408.097.783.293,1.125.195.34.466.611.814.812.347.199.739.301,1.176.301.353,0,.687-.049,1-.144.314-.096.579-.202.794-.319.216-.117.436-.254.663-.414v2.053Z" transform="translate(-69.874512,-47.854996)" clip-rule="evenodd" fill="#fa02b7" fill-opacity="0" stroke-linejoin="round" stroke-miterlimit="1"/></g><g id="eb6INoC59RZ28_to" transform="translate(62.957499,47.854996)"><path id="eb6INoC59RZ28" d="M65.64,49.553c0,.506-.116.946-.348,1.315-.233.369-.557.652-.973.85-.416.197-.892.294-1.43.294-.15,0-.334-.011-.553-.032-.218-.02-.507-.081-.87-.178-.361-.098-.738-.242-1.129-.432v-1.986c.368.252.728.463,1.082.63s.734.251,1.139.251c.374,0,.616-.069.726-.208.11-.138.165-.267.165-.388c0-.219-.094-.403-.282-.553-.19-.15-.463-.305-.824-.464-.398-.186-.747-.391-1.047-.61-.299-.221-.545-.496-.736-.828-.189-.33-.285-.721-.285-1.174c0-.436.097-.83.288-1.183.192-.352.485-.634.88-.844s.876-.315,1.446-.315c.405,0,.78.045,1.124.133.344.086.628.185.852.295.224.108.377.194.461.256v1.9c-.297-.238-.628-.449-.992-.637-.366-.187-.755-.281-1.171-.281-.273,0-.471.059-.593.176-.123.117-.184.26-.184.432c0,.16.061.298.184.415.122.118.34.259.655.427.559.292,1.006.556,1.341.789.335.234.599.503.789.81.191.305.285.685.285,1.14Z" transform="translate(-62.9575,-47.855)" clip-rule="evenodd" fill="#fa02b7" fill-opacity="0" stroke-linejoin="round" stroke-miterlimit="1"/></g><g id="eb6INoC59RZ29_to" transform="translate(55.800501,47.858498)"><path id="eb6INoC59RZ29" d="M59.554,45.78h-2.661v6.127h-2.184v-6.127h-2.662v-1.97h7.507v1.97Z" transform="translate(-55.800501,-47.858498)" clip-rule="evenodd" fill="#fa02b7" fill-opacity="0" stroke-linejoin="round" stroke-miterlimit="1"/></g><g id="eb6INoC59RZ30_to" transform="translate(47.202999,47.860001)"><path id="eb6INoC59RZ30" d="M51.038,51.909h-2.185v-3.162h-3.295v3.162h-2.19v-8.098h2.19v2.975h3.295v-2.975h2.185v8.098Z" transform="translate(-47.202999,-47.860001)" clip-rule="evenodd" fill="#fa02b7" fill-opacity="0" stroke-linejoin="round" stroke-miterlimit="1"/></g><g id="eb6INoC59RZ31_to" transform="translate(38.255001,47.856501)"><path id="eb6INoC59RZ31" d="M41.914,51.335c-.158.066-.292.121-.404.164s-.218.082-.322.117c-.103.035-.252.08-.448.135-.332.084-.663.15-.992.195-.33.045-.68.067-1.046.067-.737,0-1.418-.149-2.043-.45-.625-.3-1.125-.765-1.5-1.396s-.563-1.406-.563-2.324c0-.592.097-1.174.291-1.745.195-.571.49-1.027.888-1.37.328-.284.661-.501.998-.651s.666-.25.987-.301c.322-.051.676-.076,1.063-.076.639,0,1.167.055,1.582.161.416.107.872.249,1.367.425v1.916c-.328-.215-.676-.394-1.042-.537-.366-.145-.824-.217-1.373-.217-.632,0-1.138.133-1.516.4-.379.268-.643.585-.791.956-.149.371-.222.728-.222,1.076c0,.408.085.785.256,1.129.17.345.429.623.774.83.347.209.764.313,1.252.313.279,0,.576-.041.892-.122v-.953h-.986v-1.629h2.898v3.887Z" transform="translate(-38.255001,-47.856501)" clip-rule="evenodd" fill="#fa02b7" fill-opacity="0" stroke-linejoin="round" stroke-miterlimit="1"/></g><g id="eb6INoC59RZ32_to" transform="translate(32.4065,47.860001)"><rect id="eb6INoC59RZ32" width="2.191" height="8.098" rx="0" ry="0" transform="translate(-1.095499,-4.049)" clip-rule="evenodd" fill="#fa02b7" fill-opacity="0" stroke-linejoin="round" stroke-miterlimit="1"/></g><g id="eb6INoC59RZ33_to" transform="translate(27.537999,47.860001)"><path id="eb6INoC59RZ33" d="M30.296,51.909h-5.516v-8.098h2.189v6.158h3.327v1.94Z" transform="translate(-27.537999,-47.860001)" clip-rule="evenodd" fill="#fa02b7" fill-opacity="0" stroke-linejoin="round" stroke-miterlimit="1"/></g><g id="eb6INoC59RZ34_to" transform="translate(22.119,47.860001)"><rect id="eb6INoC59RZ34" width="2.19" height="8.098" rx="0" ry="0" transform="translate(-1.095,-4.049)" clip-rule="evenodd" fill="#fa02b7" fill-opacity="0" stroke-linejoin="round" stroke-miterlimit="1"/></g><g id="eb6INoC59RZ35_to" transform="translate(13.982002,47.912001)"><path id="eb6INoC59RZ35" d="M20.276,43.811l-3.143,8.202h-1.268l-1.886-4.772-1.933,4.772h-1.278l-3.08-8.202h2.269l1.508,4.487l1.729-4.487h1.566l1.698,4.487l1.576-4.487h2.242Z" transform="translate(-13.982002,-47.912001)" clip-rule="evenodd" fill="#fa02b7" fill-opacity="0" stroke-linejoin="round" stroke-miterlimit="1"/></g><g id="eb6INoC59RZ36_to" transform="translate(3.753,47.858498)"><path id="eb6INoC59RZ36" d="M7.506,45.78h-2.661v6.127h-2.185v-6.127h-2.66v-1.97h7.506v1.97Z" transform="translate(-3.753,-47.858498)" clip-rule="evenodd" fill="#fa02b7" fill-opacity="0" stroke-linejoin="round" stroke-miterlimit="1"/></g></g><path d="M39.771,23.917l7.675-7.926C44.296,7.708,35.691,1.187,25.844,1.187C13.3,1.187,3.132,10.798,3.132,22.653c0,4.098,1.215,7.926,3.324,11.184L26.063,7.591" clip-rule="evenodd" fill="#f4f5f6" stroke-linejoin="round" stroke-miterlimit="1"/></g></svg>
