<?xml version="1.0" encoding="utf-8"?>
<!-- Generator: Adobe Illustrator 16.0.0, SVG Export Plug-In . SVG Version: 6.00 Build 0)  -->
<!DOCTYPE svg PUBLIC "-//W3C//DTD SVG 1.1//EN" "http://www.w3.org/Graphics/SVG/1.1/DTD/svg11.dtd">
<svg version="1.1" id="Layer_1" xmlns="http://www.w3.org/2000/svg" xmlns:xlink="http://www.w3.org/1999/xlink" x="0px" y="0px"
	 width="111.898px" height="55.345px" viewBox="0 0 111.898 55.345" style="enable-background:new 0 0 111.898 55.345;"
	 xml:space="preserve">
<g>
	<polygon style="fill:#F2F2F2;" points="77.941,8.112 81.299,7.197 82.449,3.911 84.356,6.823 87.836,6.901 85.658,9.615 
		86.66,12.949 83.404,11.715 80.543,13.698 80.709,10.22 	"/>
	<polygon style="fill:#F2F2F2;" points="91.456,15.326 95.29,13.078 95.61,8.645 98.931,11.597 103.247,10.532 101.466,14.603 
		103.812,18.377 99.391,17.945 96.526,21.341 95.572,16.999 	"/>
	<polygon style="fill:#F2F2F2;" points="98.215,26.305 101.325,27.869 104.376,26.194 103.849,29.633 106.387,32.017 
		102.952,32.581 101.47,35.729 99.871,32.637 96.42,32.2 98.866,29.725 	"/>
	<g>
		<g>
			<polygon style="fill:#F2F2F2;" points="67.375,1.418 43.22,27.406 42.714,26.9 29.756,11.388 5.414,43.163 103.015,43.163 			"/>
		</g>
	</g>
	<g>
		<path style="fill:#F2F2F2;" d="M11.148,47.197H8.487v6.128H6.302v-6.128H3.641v-1.969h7.507V47.197z"/>
		<path style="fill:#F2F2F2;" d="M23.918,45.229l-3.143,8.202h-1.268l-1.886-4.773l-1.933,4.773h-1.278l-3.08-8.202h2.268
			l1.509,4.487l1.729-4.487h1.566l1.697,4.487l1.577-4.487H23.918z"/>
		<path style="fill:#F2F2F2;" d="M26.856,53.326h-2.19v-8.097h2.19V53.326z"/>
		<path style="fill:#F2F2F2;" d="M33.938,53.326h-5.516v-8.097h2.189v6.158h3.327V53.326z"/>
		<path style="fill:#F2F2F2;" d="M37.143,53.326h-2.19v-8.097h2.19V53.326z"/>
		<path style="fill:#F2F2F2;" d="M45.555,52.753c-0.157,0.066-0.292,0.121-0.403,0.164c-0.112,0.043-0.219,0.082-0.322,0.117
			s-0.252,0.08-0.448,0.134c-0.332,0.085-0.663,0.151-0.993,0.196c-0.33,0.044-0.679,0.067-1.045,0.067
			c-0.737,0-1.418-0.15-2.043-0.45s-1.125-0.765-1.5-1.396c-0.375-0.631-0.563-1.406-0.563-2.325c0-0.592,0.097-1.173,0.291-1.744
			s0.49-1.027,0.888-1.37c0.328-0.284,0.661-0.501,0.998-0.651s0.666-0.25,0.987-0.301s0.676-0.076,1.063-0.076
			c0.639,0,1.167,0.054,1.582,0.161c0.416,0.107,0.872,0.249,1.367,0.424v1.916c-0.328-0.214-0.676-0.393-1.042-0.537
			s-0.824-0.216-1.373-0.216c-0.632,0-1.138,0.133-1.516,0.4c-0.379,0.267-0.643,0.585-0.791,0.956
			c-0.149,0.37-0.223,0.728-0.223,1.075c0,0.409,0.085,0.786,0.256,1.13c0.171,0.345,0.43,0.622,0.775,0.83
			c0.346,0.208,0.763,0.313,1.252,0.313c0.279,0,0.576-0.041,0.891-0.123v-0.952h-0.985v-1.63h2.897V52.753z"/>
		<path style="fill:#F2F2F2;" d="M54.679,53.326h-2.184v-3.161H49.2v3.161H47.01v-8.097H49.2v2.974h3.295v-2.974h2.184V53.326z"/>
		<path style="fill:#F2F2F2;" d="M63.196,47.197h-2.661v6.128H58.35v-6.128h-2.661v-1.969h7.507V47.197z"/>
		<path style="fill:#F2F2F2;" d="M69.282,50.971c0,0.506-0.116,0.945-0.349,1.314c-0.232,0.37-0.556,0.653-0.972,0.85
			s-0.892,0.295-1.43,0.295c-0.15,0-0.334-0.011-0.553-0.032c-0.218-0.021-0.508-0.081-0.87-0.178
			c-0.361-0.098-0.738-0.242-1.129-0.433v-1.986c0.367,0.253,0.728,0.464,1.082,0.631c0.354,0.167,0.734,0.251,1.139,0.251
			c0.374,0,0.616-0.069,0.726-0.208c0.11-0.138,0.165-0.268,0.165-0.389c0-0.218-0.094-0.402-0.283-0.552s-0.463-0.305-0.823-0.464
			c-0.398-0.187-0.747-0.391-1.047-0.611c-0.3-0.22-0.546-0.496-0.736-0.827s-0.285-0.722-0.285-1.174
			c0-0.436,0.096-0.831,0.288-1.183c0.192-0.352,0.485-0.634,0.88-0.844c0.395-0.21,0.876-0.315,1.446-0.315
			c0.405,0,0.78,0.044,1.124,0.132c0.344,0.087,0.628,0.186,0.852,0.295s0.377,0.195,0.461,0.257V47.7
			c-0.297-0.238-0.628-0.45-0.993-0.637c-0.365-0.187-0.755-0.281-1.171-0.281c-0.272,0-0.47,0.059-0.592,0.175
			c-0.123,0.117-0.184,0.261-0.184,0.433c0,0.16,0.061,0.298,0.184,0.415c0.122,0.117,0.34,0.259,0.655,0.427
			c0.559,0.292,1.006,0.555,1.341,0.789c0.335,0.233,0.598,0.503,0.789,0.809S69.282,50.516,69.282,50.971z"/>
		<path style="fill:#F2F2F2;" d="M77.003,52.718c-0.3,0.175-0.608,0.315-0.922,0.42c-0.314,0.105-0.631,0.18-0.951,0.225
			c-0.319,0.044-0.65,0.067-0.993,0.067c-0.632,0-1.199-0.097-1.7-0.292s-0.936-0.482-1.304-0.862
			c-0.369-0.379-0.645-0.824-0.828-1.332c-0.183-0.508-0.275-1.066-0.275-1.674c0-0.697,0.108-1.308,0.325-1.832
			c0.217-0.523,0.52-0.959,0.909-1.306c0.389-0.347,0.833-0.603,1.331-0.768s1.022-0.249,1.574-0.249
			c0.824,0,1.758,0.205,2.802,0.614v2.15c-0.359-0.25-0.715-0.457-1.066-0.623c-0.351-0.165-0.764-0.248-1.239-0.248
			c-0.423,0-0.817,0.093-1.184,0.28s-0.662,0.454-0.885,0.8c-0.224,0.347-0.335,0.752-0.335,1.215c0,0.409,0.098,0.784,0.293,1.125
			c0.196,0.341,0.467,0.612,0.815,0.812c0.347,0.2,0.739,0.301,1.176,0.301c0.353,0,0.687-0.048,1-0.143
			c0.314-0.096,0.579-0.202,0.794-0.319c0.215-0.117,0.436-0.255,0.663-0.415V52.718z"/>
		<path style="fill:#F2F2F2;" d="M86.18,53.326h-2.242l-0.592-1.642h-3.153l-0.603,1.642h-2.242l3.211-8.097h2.42L86.18,53.326z
			 M82.843,50.276l-1.063-2.956l-1.074,2.956H82.843z"/>
		<path style="fill:#F2F2F2;" d="M93.162,47.775c0,0.3-0.046,0.593-0.139,0.879c-0.093,0.286-0.242,0.553-0.448,0.8
			c-0.206,0.248-0.484,0.448-0.835,0.602s-0.764,0.23-1.239,0.23h-1.436v3.038h-2.189v-8.097H90.5c0.475,0,0.888,0.078,1.239,0.233
			s0.629,0.358,0.835,0.608c0.206,0.249,0.355,0.52,0.448,0.812C93.115,47.174,93.162,47.472,93.162,47.775z M90.93,47.787
			c0-0.385-0.103-0.649-0.307-0.792s-0.57-0.213-1.098-0.213h-0.461v1.952h0.472c0.363,0,0.643-0.025,0.838-0.076
			c0.196-0.051,0.337-0.144,0.424-0.28C90.886,48.241,90.93,48.044,90.93,47.787z"/>
		<path style="fill:#F2F2F2;" d="M99.583,53.326h-5.474v-8.097h5.385v1.624h-3.196v1.484h3.049v1.63h-3.049v1.729h3.285V53.326z"/>
		<path style="fill:#F2F2F2;" d="M105.858,50.971c0,0.506-0.116,0.945-0.349,1.314c-0.232,0.37-0.556,0.653-0.972,0.85
			s-0.892,0.295-1.43,0.295c-0.15,0-0.334-0.011-0.553-0.032c-0.218-0.021-0.508-0.081-0.87-0.178
			c-0.361-0.098-0.738-0.242-1.129-0.433v-1.986c0.367,0.253,0.728,0.464,1.082,0.631c0.354,0.167,0.734,0.251,1.139,0.251
			c0.374,0,0.616-0.069,0.726-0.208c0.11-0.138,0.165-0.268,0.165-0.389c0-0.218-0.094-0.402-0.283-0.552s-0.463-0.305-0.823-0.464
			c-0.398-0.187-0.747-0.391-1.047-0.611c-0.3-0.22-0.546-0.496-0.736-0.827s-0.285-0.722-0.285-1.174
			c0-0.436,0.096-0.831,0.288-1.183c0.192-0.352,0.485-0.634,0.88-0.844c0.395-0.21,0.876-0.315,1.446-0.315
			c0.405,0,0.78,0.044,1.124,0.132c0.344,0.087,0.628,0.186,0.852,0.295s0.377,0.195,0.461,0.257V47.7
			c-0.297-0.238-0.628-0.45-0.993-0.637c-0.365-0.187-0.755-0.281-1.171-0.281c-0.272,0-0.47,0.059-0.592,0.175
			c-0.123,0.117-0.184,0.261-0.184,0.433c0,0.16,0.061,0.298,0.184,0.415c0.122,0.117,0.34,0.259,0.655,0.427
			c0.559,0.292,1.006,0.555,1.341,0.789c0.335,0.233,0.598,0.503,0.789,0.809S105.858,50.516,105.858,50.971z"/>
	</g>
	<g>
		<path style="fill:#F2F2F2;" d="M43.413,25.335l7.675-7.926C47.938,9.126,39.333,2.605,29.486,2.605
			c-12.544,0-22.712,9.611-22.712,21.466c0,4.098,1.215,7.925,3.323,11.183L29.705,9.009"/>
	</g>
</g>
<g>
</g>
<g>
</g>
<g>
</g>
<g>
</g>
<g>
</g>
<g>
</g>
<g>
</g>
<g>
</g>
<g>
</g>
<g>
</g>
<g>
</g>
<g>
</g>
<g>
</g>
<g>
</g>
<g>
</g>
</svg>
